<?xml version="1.0" encoding="utf-8" ?><svg xmlns="http://www.w3.org/2000/svg" xmlns:xlink="http://www.w3.org/1999/xlink" width="1024" height="1024" viewBox="0 0 1024 1024"><path fill="#EDEDEC" d="M353.319 261.755C360.246 258.443 423.054 238.075 429.139 237.856C436.005 237.608 443.337 239.506 450.051 240.821C460.851 242.937 471.587 245.317 482.409 247.34C511.991 252.726 541.541 258.295 571.055 264.044C582.89 266.287 595.944 268.354 607.587 270.814C632.859 303.838 679.666 361.127 706.049 396.801C706.911 397.967 707.181 440.253 706.489 445.914C711.607 443.925 732.345 439.166 738.122 437.769C737.194 435.158 736.441 431.179 735.914 428.464C733.804 419.626 724.029 380.654 724.153 373.319C729.54 371.375 734.892 369.337 740.207 367.205C784.173 388.429 829.989 407.519 874.237 428.174C864.761 435.882 846.624 457.09 837.372 467.049C812.232 493.76 787.248 520.616 762.42 547.616C761.708 544.932 760.877 542.021 760.259 539.339C758.799 534.01 757.292 526.04 756.038 520.448L747.822 484.185C734.213 488.362 720.08 491.689 706.395 495.693C706.655 546.792 706.599 597.893 706.227 648.991L706.24 688.974C706.389 716.061 708.629 748.496 678.834 761.108C663.358 767.66 647.152 771.583 631.13 776.558C624.727 778.496 611.196 782.843 605.483 783.792C595.921 787.052 590.145 785.216 580.635 783.586C574.893 782.602 569.213 781.461 563.502 780.31L512.511 770.198L423.243 753.116C404.738 749.744 384.338 746.868 366.305 741.853C357.73 739.468 347.15 732.04 341.182 725.581C319.46 702.07 320.152 677.479 321.018 647.774C321.396 634.811 320.944 620.799 321.246 607.699C320.669 594.863 321.809 579.544 321.53 566.121C321.481 563.02 321.295 559.908 321.843 556.865C322.272 555.036 322.076 544.377 322.064 541.968L321.907 509.294C321.438 462.945 321.635 416.59 322.5 370.246C322.718 348.913 320.218 310.606 326.399 292.001C331.495 276.66 338.979 268.938 353.319 261.755Z"/><defs><linearGradient id="gradient_0" gradientUnits="userSpaceOnUse" x1="633.12585" y1="441.46951" x2="687.22766" y2="568.2644"><stop offset="0" stop-color="#A2A2DD"/><stop offset="1" stop-color="#5A57FF"/></linearGradient></defs><path fill="url(#gradient_0)" d="M724.153 373.319C729.54 371.375 734.892 369.337 740.207 367.205C784.173 388.429 829.989 407.519 874.237 428.174C864.761 435.882 846.624 457.09 837.372 467.049C812.232 493.76 787.248 520.616 762.42 547.616C761.708 544.932 760.877 542.021 760.259 539.339C758.799 534.01 757.292 526.04 756.038 520.448L747.822 484.185C734.213 488.362 720.08 491.689 706.395 495.693C688.76 499.819 670.941 505.561 653.367 510.077C648.197 511.405 636.018 515.187 631.398 515.727L631.452 520.527L631.35 529.295C631.277 530.971 631.255 532.96 631.038 534.598L631.018 538.93C630.973 539.431 630.828 541.487 630.714 541.836C617.154 545.963 604.011 548.868 590.228 552.104L545.615 562.521C539.228 563.959 532.969 564.738 526.533 565.792C524.574 566.113 523.423 567.696 522.454 569.218C520.373 572.49 522.112 576.286 517.636 576.347C517.05 576.951 514.34 581.153 513.66 582.13C511.132 585.759 509.207 587.753 505.759 590.478L505.303 590.485C486.367 590.626 477.46 583.718 464.445 570.864C463.239 568.746 460.333 565.004 458.792 562.913L457.483 561.007C448.238 547.258 447.021 532.847 446.925 516.931C450.132 515.307 465.079 511.37 468.735 510.814C470.212 510.56 472.728 509.862 474.271 509.49C478.368 507.86 484.334 506.481 488.725 505.336C490.366 505.042 493.368 504.155 495.086 503.708C497.224 503.316 501.864 501.873 504.143 501.237L511.512 499.182C516.766 497.133 524.797 495.144 530.402 493.622L563.516 484.771C586.707 478.546 609.036 471.442 632.551 466.254C641.269 464.332 653.233 460.636 662.294 458.317C672.662 455.716 682.989 452.956 693.271 450.038C696.466 449.135 703.723 447.268 706.489 445.914C711.607 443.925 732.345 439.166 738.122 437.769C737.194 435.158 736.441 431.179 735.914 428.464C733.804 419.626 724.029 380.654 724.153 373.319Z"/><defs><linearGradient id="gradient_1" gradientUnits="userSpaceOnUse" x1="602.89362" y1="469.6275" x2="612.57117" y2="499.20816"><stop offset="0" stop-color="#EBE6C2"/><stop offset="1" stop-color="#B5B3D9"/></linearGradient></defs><path fill="url(#gradient_1)" d="M738.122 437.769C739.372 441.58 741.595 448.73 740.695 452.582C740.006 451.425 740.148 451.658 739.719 450.363C733.143 449.733 681.546 477.031 669.992 481.247C655.776 486.435 642.205 490.298 626.873 493.822C616.84 496.129 605.151 499.715 594.976 502.295C587.553 504.177 579.939 505.689 572.57 507.696C549.701 513.923 527.283 521.719 504.299 527.504C495.669 529.676 485.755 532.925 476.933 533.07C477.835 531.136 479.085 528.226 480.179 526.494C483.756 519.674 490.57 510.226 495.086 503.708C497.224 503.316 501.864 501.873 504.143 501.237L511.512 499.182C516.766 497.133 524.797 495.144 530.402 493.622L563.516 484.771C586.707 478.546 609.036 471.442 632.551 466.254C641.269 464.332 653.233 460.636 662.294 458.317C672.662 455.716 682.989 452.956 693.271 450.038C696.466 449.135 703.723 447.268 706.489 445.914C711.607 443.925 732.345 439.166 738.122 437.769Z"/><path fill="#EDEDEC" d="M495.086 503.708C497.224 503.316 501.864 501.873 504.143 501.237C504.083 501.806 504.007 502.542 503.914 503.443C497.107 511.043 489.076 518.021 482.089 525.609C481.476 526.274 480.786 526.384 480.179 526.494C483.756 519.674 490.57 510.226 495.086 503.708Z"/><path fill="#0309D2" d="M724.153 373.319C729.54 371.375 734.892 369.337 740.207 367.205C784.173 388.429 829.989 407.519 874.237 428.174C864.761 435.882 846.624 457.09 837.372 467.049C812.232 493.76 787.248 520.616 762.42 547.616C761.708 544.932 760.877 542.021 760.259 539.339C762.916 537.038 768.595 530.566 771.181 527.754L791.022 506.192L857.66 434.005C848.328 429.594 838.227 425.511 828.7 421.155C805.929 410.563 783.053 400.198 760.076 390.063C747.9 384.587 736.077 379.318 724.153 373.319Z"/><defs><linearGradient id="gradient_2" gradientUnits="userSpaceOnUse" x1="576.86566" y1="531.85815" x2="580.47046" y2="548.50226"><stop offset="0" stop-color="#5054BA"/><stop offset="1" stop-color="#A0A3D4"/></linearGradient></defs><path fill="url(#gradient_2)" d="M525.596 544.681C560.49 534.579 596.423 526.026 631.398 515.727L631.452 520.527L631.35 529.295C631.277 530.971 631.255 532.96 631.038 534.598L631.018 538.93C630.973 539.431 630.828 541.487 630.714 541.836C617.154 545.963 604.011 548.868 590.228 552.104L545.615 562.521C539.228 563.959 532.969 564.738 526.533 565.792C524.574 566.113 523.423 567.696 522.454 569.218C520.373 572.49 522.112 576.286 517.636 576.347C522.047 567.014 523.351 562.51 525.325 552.611L525.506 549.777L525.596 544.681Z"/><defs><linearGradient id="gradient_3" gradientUnits="userSpaceOnUse" x1="574.73456" y1="546.19891" x2="576.60034" y2="554.26459"><stop offset="0" stop-color="#9496CE"/><stop offset="1" stop-color="#BDBFDF"/></linearGradient></defs><path fill="url(#gradient_3)" d="M565.469 551.357C567.686 549.446 571.203 546.836 574.25 546.726C573.725 548.185 573.411 548.222 573.785 549.39C576.713 548.67 575.181 547.584 577.323 546.734L577.884 548.216C580.296 548.098 581.76 545.997 584.378 545.749C590.37 545.18 596.314 544.173 602.13 542.62C604.576 541.967 603.643 540.267 606.058 540.121L606.169 541.659L607.514 540.605C609.849 541.098 610.989 541.733 612.434 539.696C610.628 538.882 610.658 538.74 609.393 537.293L609.549 536.491C613.624 535.458 626.503 537.947 631.018 538.93C630.973 539.431 630.828 541.487 630.714 541.836C617.154 545.963 604.011 548.868 590.228 552.104L545.615 562.521C539.228 563.959 532.969 564.738 526.533 565.792C524.574 566.113 523.423 567.696 522.454 569.218C520.373 572.49 522.112 576.286 517.636 576.347C522.047 567.014 523.351 562.51 525.325 552.611L526.501 553.627C527.015 556.377 527.573 557.087 529.105 559.379C533.418 560.034 557.007 552.688 564.69 551.475L565.469 551.357Z"/><path fill="#3534EE" d="M525.596 544.681C560.49 534.579 596.423 526.026 631.398 515.727L631.452 520.527C627.422 519.313 606.855 526.345 601.14 527.285C591.011 528.951 580.318 531.724 570.446 534.59C567.898 535.385 563.556 537.746 560.662 538.882C557.338 540.007 526.326 546.778 526.471 546.494L525.506 549.777L525.596 544.681Z"/><path fill="#6267C3" d="M560.662 538.882L562.467 539.349L563.297 540.857C559.695 542.801 555.44 543.114 552.729 544.275C545.616 547.323 538.848 548.929 531.134 546.879C529.45 546.432 528.419 545.897 526.471 546.494C526.326 546.778 557.338 540.007 560.662 538.882Z"/><path fill="#6267C3" d="M631.038 534.598C630.894 533.398 630.833 531.732 630.753 530.487L630.255 530.13C628.578 530.427 626.905 530.743 625.236 531.077L624.798 530.177C625.808 527.971 628.465 527.723 630.593 528.121L631.35 529.295C631.277 530.971 631.255 532.96 631.038 534.598Z"/><path fill="#0309D2" d="M458.792 562.913C462.226 562.083 466.324 560.413 470.012 559.493C488.578 554.866 507.153 549.803 525.596 544.681L525.506 549.777L525.325 552.611C523.351 562.51 522.047 567.014 517.636 576.347C517.05 576.951 514.34 581.153 513.66 582.13C511.132 585.759 509.207 587.753 505.759 590.478L505.303 590.485C486.367 590.626 477.46 583.718 464.445 570.864C463.239 568.746 460.333 565.004 458.792 562.913Z"/><defs><linearGradient id="gradient_4" gradientUnits="userSpaceOnUse" x1="716.5343" y1="390.17538" x2="748.37872" y2="408.54532"><stop offset="0" stop-color="#E5DFC5"/><stop offset="1" stop-color="#B4B3D7"/></linearGradient></defs><path fill="url(#gradient_4)" d="M724.153 373.319C736.077 379.318 747.9 384.587 760.076 390.063C758.505 393.61 755.548 397.387 753.552 400.88C747.78 410.979 742.803 419.081 735.914 428.464C733.804 419.626 724.029 380.654 724.153 373.319Z"/><defs><linearGradient id="gradient_5" gradientUnits="userSpaceOnUse" x1="444.45389" y1="531.25079" x2="460.42053" y2="534.78778"><stop offset="0" stop-color="#323FB4"/><stop offset="1" stop-color="#565CC6"/></linearGradient></defs><path fill="url(#gradient_5)" d="M446.925 516.931C450.132 515.307 465.079 511.37 468.735 510.814C458.703 520.768 456.753 532.407 456.878 546.103C456.915 550.18 456.537 557.325 457.483 561.007C448.238 547.258 447.021 532.847 446.925 516.931Z"/><path fill="#6267C3" d="M474.271 509.49C478.368 507.86 484.334 506.481 488.725 505.336L485.989 509.421C485.543 510.099 484.927 510.535 484.301 511.067C481.514 509.405 485.162 509.465 481.795 508.596C478.251 509.526 478.562 510.209 475.124 509.627L474.271 509.49Z"/><path fill="#0309D2" d="M353.319 261.755C360.246 258.443 423.054 238.075 429.139 237.856C436.005 237.608 443.337 239.506 450.051 240.821C460.851 242.937 471.587 245.317 482.409 247.34C511.991 252.726 541.541 258.295 571.055 264.044C582.89 266.287 595.944 268.354 607.587 270.814C632.859 303.838 679.666 361.127 706.049 396.801C706.911 397.967 707.181 440.253 706.489 445.914C703.723 447.268 696.466 449.135 693.271 450.038C682.989 452.956 672.662 455.716 662.294 458.317C653.233 460.636 641.269 464.332 632.551 466.254C631.928 460.163 633.381 414.311 631.692 412.582C629 408.046 622.321 400.246 618.707 395.804L595.617 367.459C577.493 345.21 559.723 322.812 541.742 300.462C540.037 298.344 538.191 296.297 535.901 294.808C533.491 293.302 387.557 266.45 371.663 263.869C365.592 262.83 359.468 262.124 353.319 261.755Z"/><path fill="#0309D2" d="M631.398 515.727C636.018 515.187 648.197 511.405 653.367 510.077C670.941 505.561 688.76 499.819 706.395 495.693C706.655 546.792 706.599 597.893 706.227 648.991L706.24 688.974C706.389 716.061 708.629 748.496 678.834 761.108C663.358 767.66 647.152 771.583 631.13 776.558C624.727 778.496 611.196 782.843 605.483 783.792C609.521 780.848 612.901 779.992 616.841 776.004C630.369 762.311 629.46 741.199 629.396 723.496C629.409 714.574 629.505 705.652 629.683 696.732L631.023 576.564C631.12 565.407 630.437 552.321 630.714 541.836C630.828 541.487 630.973 539.431 631.018 538.93L631.038 534.598C631.255 532.96 631.277 530.971 631.35 529.295L631.452 520.527L631.398 515.727Z"/><path fill="#9FA3CF" d="M460.265 567.545C457.659 568.151 455.069 568.826 452.497 569.569C448.8 570.623 426.847 576.996 425.647 579.149L426.362 580.6C425.35 580.439 425.181 580.078 424.514 579.188C398.038 543.868 406.525 482.627 454.403 471.548C461.089 470.001 467.621 470.532 474.469 471.207C488.878 474.04 504.733 486.093 511.512 499.182L504.143 501.237C501.864 501.873 497.224 503.316 495.086 503.708C493.368 504.155 490.366 505.042 488.725 505.336C484.334 506.481 478.368 507.86 474.271 509.49C472.728 509.862 470.212 510.56 468.735 510.814C465.079 511.37 450.132 515.307 446.925 516.931C447.021 532.847 448.238 547.258 457.483 561.007L458.792 562.913C460.333 565.004 463.239 568.746 464.445 570.864C463.016 569.935 461.587 568.657 460.265 567.545Z"/><path fill="#0309D2" d="M474.469 471.207C488.878 474.04 504.733 486.093 511.512 499.182L504.143 501.237C501.864 501.873 497.224 503.316 495.086 503.708C493.368 504.155 490.366 505.042 488.725 505.336C484.334 506.481 478.368 507.86 474.271 509.49C472.728 509.862 470.212 510.56 468.735 510.814C465.079 511.37 450.132 515.307 446.925 516.931C448.253 501.432 456.539 474.63 474.469 471.207Z"/><path fill="#3534EE" d="M535.901 294.808C538.191 296.297 540.037 298.344 541.742 300.462C559.723 322.812 577.493 345.21 595.617 367.459L618.707 395.804C622.321 400.246 629 408.046 631.692 412.582C599.426 406.782 567.719 400.116 535.557 394.033C535.963 360.96 536.078 327.883 535.901 294.808Z"/><defs><linearGradient id="gradient_6" gradientUnits="userSpaceOnUse" x1="249.37886" y1="582.89404" x2="260.55453" y2="623.20374"><stop offset="0" stop-color="#EEEABB"/><stop offset="1" stop-color="#807CF9"/></linearGradient></defs><path fill="url(#gradient_6)" d="M182.911 604.674C185.322 589.702 195.635 590.002 208.142 586.917C216.243 584.94 224.322 582.873 232.378 580.718C261.726 572.879 292.443 563.845 321.843 556.865C321.295 559.908 321.481 563.02 321.53 566.121C321.809 579.544 320.669 594.863 321.246 607.699C285.787 615.75 251.046 626.335 215.868 635.504C209.251 637.228 202.596 639.218 195.842 640.304C184.602 632.886 179.413 617.524 182.911 604.674Z"/><path fill="#E9E1BC" d="M182.911 604.674C185.322 589.702 195.635 590.002 208.142 586.917C216.243 584.94 224.322 582.873 232.378 580.718C261.726 572.879 292.443 563.845 321.843 556.865C321.295 559.908 321.481 563.02 321.53 566.121L320.638 564.292L319.751 564.592C311.873 567.221 302.373 569.047 294.149 571.37L206.078 595.451C199.003 597.409 191.797 599.028 184.895 601.601C184.887 601.603 183.257 604.271 182.911 604.674Z"/></svg>
